<svg xmlns="http://www.w3.org/2000/svg" width="500" height="500" viewBox="0 0 500 500">
    <rect x="0" y="0" width="500" height="500" fill="#FFFFFF" />
    <g
        transform="translate(144.3661971830986,149.3351056338027)translate(105.40492957746477,100.25695281690145)rotate(0)translate(-105.40492957746477,-100.25695281690145) scale(2.1080985915492954,2.1080985915492954)"
        opacity="1">
        <defs class="defs" />
        <path transform="translate(-1,-3.442)"
            d="M101,39.763h-38.187l-11.813,-36.321l-11.812,36.321h-38.188l30.898,22.455l-11.813,36.34l30.915,-22.452l30.895,22.451l-11.791,-36.34zM75.814,90.185l-24.814,-18.034v-16.125l-24.83,34.16l9.489,-29.189h-0.001l15.327,-4.986l-40.143,-13.049l-0.001,-0.001h30.67l9.473,13.049h0.016v-42.227l9.489,29.178l-9.489,13.05l40.159,-13.049l-24.816,18.035l-15.343,-4.986v0.016z"
            fill="#000000" class="fill c1" style="fill: coral;" />
    </g>
</svg>